<?xml version="1.0" standalone="no"?><!DOCTYPE svg PUBLIC "-//W3C//DTD SVG 1.1//EN" "http://www.w3.org/Graphics/SVG/1.1/DTD/svg11.dtd"><svg t="1559286510639" class="icon" style="" viewBox="0 0 1030 1024" version="1.1" xmlns="http://www.w3.org/2000/svg" p-id="4695" xmlns:xlink="http://www.w3.org/1999/xlink" width="201.171875" height="200"><defs><style type="text/css"></style></defs><path d="M998.4 727.04H35.84c-14.336 0-25.6-11.264-25.6-25.6 0-279.552 227.84-507.392 507.392-507.392 279.04 0 506.368 227.84 506.368 507.392 0 14.336-11.264 25.6-25.6 25.6zM61.952 675.84h909.824c-13.312-239.616-211.968-430.592-454.656-430.592S75.264 436.224 61.952 675.84z" p-id="4696"></path><path d="M517.12 225.28c-14.336 0-25.6-11.264-25.6-25.6V117.76c0-14.336 11.264-25.6 25.6-25.6s25.6 11.264 25.6 25.6v81.92c0 14.336-11.264 25.6-25.6 25.6zM998.4 860.16H35.84c-14.336 0-25.6-11.264-25.6-25.6s11.264-25.6 25.6-25.6h962.56c14.336 0 25.6 11.264 25.6 25.6s-11.264 25.6-25.6 25.6zM363.52 670.72c-14.336 0-25.6-11.264-25.6-25.6v-92.16c0-14.336 11.264-25.6 25.6-25.6s25.6 11.264 25.6 25.6v92.16c0 14.336-11.264 25.6-25.6 25.6zM522.24 670.72c-14.336 0-25.6-11.264-25.6-25.6V373.76c0-14.336 11.264-25.6 25.6-25.6s25.6 11.264 25.6 25.6v271.36c0 14.336-11.264 25.6-25.6 25.6zM675.84 670.72c-14.336 0-25.6-11.264-25.6-25.6V491.52c0-14.336 11.264-25.6 25.6-25.6s25.6 11.264 25.6 25.6v153.6c0 14.336-11.264 25.6-25.6 25.6z" p-id="4697"></path><path d="M599.04 133.12H440.32c-14.336 0-25.6-11.264-25.6-25.6s11.264-25.6 25.6-25.6h158.72c14.336 0 25.6 11.264 25.6 25.6s-11.264 25.6-25.6 25.6z" p-id="4698"></path></svg>